# xmcd
#
# Track frame offsets:
# 150
# 14051
# 29803
# 45528
# 59766
# 77787
# 89821
# 107772
# 126399
# 141207
# 159440
# 178255
# 194636
# 211625
# 225040
# 243772
# 261407
# 277195
# 294713
# 308365
#
# Disc length: 4332 seconds
#
#
# Revision: 0
# Processed by: cddbd v1.5.2PL0 Copyright (c) Steve Scherf et al.
# Submitted via: FreeRIP 2.91 
#
DISCID=2f10ea14
DTITLE=zeze e luciano_rick e renner - zeze e luciano_rick e renner
DYEAR=1900
DGENRE=Country
TTITLE0=doce paixão
TTITLE1=enrosca
TTITLE2=imprevisivel
TTITLE3=mulher dificel
TTITLE4=voce vai ver
TTITLE5=pelejando
TTITLE6=galera felicidade
TTITLE7=bebedeira
TTITLE8=coração de vidro
TTITLE9=de mau com voce
TTITLE10=agora aguente nós
TTITLE11=mar de rosas
TTITLE12=foi
TTITLE13=pinga goela abaixo
TTITLE14=quando a cabeça não pensa
TTITLE15=to abrindo as portas do meu coração
TTITLE16=meu destino te escolheu
TTITLE17=nóis tropica mais não cai
TTITLE18=sou parada dura
TTITLE19=vaquejada ou rodeio
EXTD=
EXTT0=
EXTT1=
EXTT2=
EXTT3=
EXTT4=
EXTT5=
EXTT6=
EXTT7=
EXTT8=
EXTT9=
EXTT10=
EXTT11=
EXTT12=
EXTT13=
EXTT14=
EXTT15=
EXTT16=
EXTT17=
EXTT18=
EXTT19=
PLAYORDER=
